# xmcd CD database file
#
# Track frame offsets:
#	150
#	5598
#	44093
#	51694
#	87578
#	139762
#	173566
#	185088
#	226727
#	257727
#
# Disc length: 3784 seconds
#
# Revision: 0
# Processed by: cddbd v1.5.2PL0 Copyright (c) Steve Scherf et al.
# Submitted via: CDex 1.51
#
DISCID=8e0ec60a
DTITLE=Maxime Bender - Open Range
DYEAR=2007
DGENRE=Jazz
TTITLE0=Noun-intro
TTITLE1=Noun (Ocean of life and death)
TTITLE2=Heliopolis-intro
TTITLE3=Heliopolis (City of the sun)
TTITLE4=Nakara
TTITLE5=Open Range
TTITLE6=Waterfall-intro
TTITLE7=Waterfall
TTITLE8=Isis (Mother of nature)
TTITLE9=The Light
EXTD=YEAR: 2007
EXTT0=
EXTT1=
EXTT2=
EXTT3=
EXTT4=
EXTT5=
EXTT6=
EXTT7=
EXTT8=
EXTT9=
PLAYORDER=
